<?xml version="1.0" encoding="utf-8"?>
<!-- Generator: Adobe Illustrator 18.1.1, SVG Export Plug-In . SVG Version: 6.00 Build 0)  -->
<!DOCTYPE svg PUBLIC "-//W3C//DTD SVG 1.1//EN" "http://www.w3.org/Graphics/SVG/1.1/DTD/svg11.dtd">
<svg version="1.1" id="Layer_1" xmlns="http://www.w3.org/2000/svg" xmlns:xlink="http://www.w3.org/1999/xlink" x="0px" y="0px"
	 viewBox="0 0 792 401" enable-background="new 0 0 792 401" xml:space="preserve">
<text transform="matrix(1 0 0 1 141.6 311.1665)" fill="#8C8B8B" font-family="'Panton-LightCaps'" font-size="59.6729">/The Future</text>
<text transform="matrix(1 0 0 1 1.525879e-05 645.9888)" fill="#8C8B8B" font-family="'Panton-LightCaps'" font-size="59.6729">/POtential Designers</text>
<text transform="matrix(1 0 0 1 132 441.7114)" fill="#6D6A6A" font-family="'HelveticaNeue-Light'" font-size="12">What you see, are what we do in art and design schools. </text>
<text transform="matrix(1 0 0 1 132 456.1114)" fill="#6D6A6A" font-family="'HelveticaNeue-Light'" font-size="12">We are the students for today and designers for tomorrow.</text>
<text transform="matrix(1 0 0 1 132 470.5114)" fill="#6D6A6A" font-family="'HelveticaNeue-Light'" font-size="12">We are recently</text>
<text transform="matrix(1 0 0 1 216.8 470.5114)" fill="#6D6A6A" font-family="'HelveticaNeue-Light'" font-size="12"> </text>
<text transform="matrix(1 0 0 1 220.1 470.5114)" fill="#6D6A6A" font-family="'HelveticaNeue-Medium'" font-size="12">UNTITLED</text>
<text transform="matrix(1 0 0 1 278.1 470.5114)" fill="#6D6A6A" font-family="'HelveticaNeue-Medium'" font-size="12">.</text>
<g>
	<text transform="matrix(1 0 0 1 156.3697 258.8339)" fill="#8C8B8B" font-family="'Panton-LightCaps'" font-size="30.2188">We ARE</text>
</g>
<g>
	<path fill="#FFFFFF" d="M-15.5,653.2c0-10,0-20,0-30c12,0,24,0,36,0c0,10,0,20,0,30C8.5,653.2-3.5,653.2-15.5,653.2z M1.3,635.4
		c2.2,2.4,3.9,4.1,5.5,5.9c1.3,1.4,2,0.9,2.4-0.1c-2.8-2.9-5.4-5.5-8.2-8.4c-2.1,2.2-4.4,4.5-6.6,6.9c-0.4,0.5-0.3,1.4-0.5,2.1
		c0.7-0.1,1.6,0,2-0.5C-2.3,639.5-0.7,637.6,1.3,635.4z"/>
	<path d="M1.3,635.4c-2,2.2-3.6,4.1-5.3,5.8c-0.4,0.4-1.3,0.3-2,0.5c0.1-0.7,0.1-1.6,0.5-2.1c2.2-2.4,4.5-4.7,6.6-6.9
		c2.8,2.9,5.4,5.5,8.2,8.4c-0.4,1.1-1.2,1.5-2.4,0.1C5.2,639.5,3.5,637.7,1.3,635.4z"/>
</g>
<g>
	<path fill="#FFFFFF" d="M226.5,762.7c0-11,0-22,0-33c14,0,28,0,42,0c0,11,0,22,0,33C254.5,762.7,240.5,762.7,226.5,762.7z
		 M247,750.1c-2.7-2.8-5-5.1-7.2-7.5c-1.4-1.5-2.8-1.5-4.2,0c-1.5,1.5-1.4,2.8,0.1,4.2c3.1,3,6.2,6.1,9.2,9.2
		c1.5,1.5,2.7,1.6,4.2,0.1c3-3.1,6.1-6.1,9.2-9.2c1.4-1.4,1.7-2.7,0.2-4.3c-1.6-1.6-2.9-1.5-4.4,0.1
		C251.8,745.1,249.6,747.4,247,750.1z"/>
	<path d="M247,750.1c2.6-2.7,4.8-5,7-7.4c1.5-1.6,2.9-1.7,4.4-0.1c1.5,1.5,1.3,2.9-0.2,4.3c-3.1,3-6.1,6.1-9.2,9.2
		c-1.5,1.5-2.8,1.4-4.2-0.1c-3-3.1-6.1-6.2-9.2-9.2c-1.5-1.4-1.6-2.7-0.1-4.2s2.8-1.6,4.2,0C242.1,745,244.4,747.3,247,750.1z"/>
</g>
<path fill="#8C8B8B" d="M427.1,570.9c2.6-2.7,4.8-5,7-7.4c1.5-1.6,2.9-1.7,4.4-0.1c1.5,1.5,1.3,2.9-0.2,4.3c-3.1,3-6.1,6.1-9.2,9.2
	c-1.5,1.5-2.8,1.4-4.2-0.1c-3-3.1-6.1-6.2-9.2-9.2c-1.5-1.4-1.6-2.7-0.1-4.2s2.8-1.6,4.2,0C422.1,565.8,424.4,568.1,427.1,570.9z"/>
</svg>
