<?xml version="1.0" encoding="utf-8"?>
<!-- Generator: Adobe Illustrator 18.1.1, SVG Export Plug-In . SVG Version: 6.00 Build 0)  -->
<!DOCTYPE svg PUBLIC "-//W3C//DTD SVG 1.1//EN" "http://www.w3.org/Graphics/SVG/1.1/DTD/svg11.dtd">
<svg version="1.1" id="Layer_1" xmlns="http://www.w3.org/2000/svg" xmlns:xlink="http://www.w3.org/1999/xlink" x="0px" y="0px"
	 viewBox="0 278 792 334" enable-background="new 0 278 792 334" xml:space="preserve">
<text transform="matrix(1 0 0 1 227.9018 397.8521)" fill="#8C8B8B" font-family="'Panton-LightCaps'" font-size="55.4056">/The Future</text>
<text transform="matrix(1 0 0 1 96.4282 509.2705)" fill="#8C8B8B" font-family="'Panton-LightCaps'" font-size="55.4056">/POtential Designers</text>
<text transform="matrix(1 0 0 1 122.5606 552.4473)" fill="#6D6A6A" font-family="'HelveticaNeue-Light'" font-size="11.1419">We are recently</text>
<text transform="matrix(1 0 0 1 201.2959 552.4473)" fill="#6D6A6A" font-family="'HelveticaNeue-Light'" font-size="11.1419"> </text>
<text transform="matrix(1 0 0 1 199.2959 552.4473)" fill="#6D6A6A" font-family="'HelveticaNeue-Medium'" font-size="11.1419">UNTITLED</text>
<text transform="matrix(1 0 0 1 254.2124 552.4473)" fill="#6D6A6A" font-family="'HelveticaNeue-Medium'" font-size="11.1419">.</text>
<text transform="matrix(1 0 0 1 122.5606 525.707)" fill="#6D6A6A" font-family="'HelveticaNeue-Light'" font-size="11.1419">We are either currently enrolled art &amp; design students or freelance designers.</text>
<text transform="matrix(1 0 0 1 201.2959 539.0771)" fill="#6D6A6A" font-family="'HelveticaNeue-Light'" font-size="11.1419"> </text>
<g>
	<text transform="matrix(1 0 0 1 241.6152 349.2617)" fill="#8C8B8B" font-family="'Panton-LightCaps'" font-size="28.0578">We ARE</text>
</g>
<g>
	<text transform="matrix(1 0 0 1 112.5557 461.9619)" fill="#8C8B8B" font-family="'Panton-LightCaps'" font-size="28.0578">We ARE</text>
</g>
<g>
	<path fill="#FFFFFF" d="M-14.4,720.1c0-9.3,0-18.6,0-27.9c11.1,0,22.3,0,33.4,0c0,9.3,0,18.6,0,27.9
		C7.9,720.1-3.2,720.1-14.4,720.1z M1.2,703.6c2,2.2,3.6,3.8,5.1,5.5c1.2,1.3,1.9,0.8,2.2-0.1c-2.6-2.7-5-5.1-7.6-7.8
		c-1.9,2-4.1,4.2-6.1,6.4c-0.4,0.5-0.3,1.3-0.5,1.9c0.6-0.1,1.5,0,1.9-0.5C-2.1,707.4-0.6,705.6,1.2,703.6z"/>
	<path d="M1.2,703.6c-1.9,2-3.3,3.8-4.9,5.4c-0.4,0.4-1.2,0.3-1.9,0.5c0.1-0.6,0.1-1.5,0.5-1.9c2-2.2,4.2-4.4,6.1-6.4
		c2.6,2.7,5,5.1,7.6,7.8c-0.4,1-1.1,1.4-2.2,0.1C4.8,707.4,3.2,705.8,1.2,703.6z"/>
</g>
<g>
	<path fill="#FFFFFF" d="M210.3,821.8c0-10.2,0-20.4,0-30.6c13,0,26,0,39,0c0,10.2,0,20.4,0,30.6
		C236.3,821.8,223.3,821.8,210.3,821.8z M229.3,810.1c-2.5-2.6-4.6-4.7-6.7-7c-1.3-1.4-2.6-1.4-3.9,0c-1.4,1.4-1.3,2.6,0.1,3.9
		c2.9,2.8,5.8,5.7,8.5,8.5c1.4,1.4,2.5,1.5,3.9,0.1c2.8-2.9,5.7-5.7,8.5-8.5c1.3-1.3,1.6-2.5,0.2-4c-1.5-1.5-2.7-1.4-4.1,0.1
		C233.8,805.4,231.8,807.5,229.3,810.1z"/>
	<path d="M229.3,810.1c2.4-2.5,4.5-4.6,6.5-6.9c1.4-1.5,2.7-1.6,4.1-0.1c1.4,1.4,1.2,2.7-0.2,4c-2.9,2.8-5.7,5.7-8.5,8.5
		c-1.4,1.4-2.6,1.3-3.9-0.1c-2.8-2.9-5.7-5.8-8.5-8.5c-1.4-1.3-1.5-2.5-0.1-3.9c1.4-1.4,2.6-1.5,3.9,0
		C224.8,805.3,226.9,807.5,229.3,810.1z"/>
</g>
<path fill="#8C8B8B" d="M396.6,643.7c2.4-2.5,4.5-4.6,6.5-6.9c1.4-1.5,2.7-1.6,4.1-0.1c1.4,1.4,1.2,2.7-0.2,4
	c-2.9,2.8-5.7,5.7-8.5,8.5c-1.4,1.4-2.6,1.3-3.9-0.1c-2.8-2.9-5.7-5.8-8.5-8.5c-1.4-1.3-1.5-2.5-0.1-3.9c1.4-1.4,2.6-1.5,3.9,0
	C391.9,638.9,394.1,641.2,396.6,643.7z"/>
<polyline fill="none" stroke="#6D6A6A" stroke-miterlimit="10" points="384.9,570 394.3,579.5 403.8,570 "/>
<text transform="matrix(1 0 0 1 122.5606 539.0771)" fill="#6D6A6A" font-family="'HelveticaNeue-Light'" font-size="11.1419">What you see here are our art &amp; design stories.</text>
</svg>
