<?xml version="1.0" encoding="utf-8"?>
<!-- Generator: Adobe Illustrator 20.1.0, SVG Export Plug-In . SVG Version: 6.00 Build 0)  -->
<svg version="1.1" id="Layer_1" xmlns="http://www.w3.org/2000/svg" xmlns:xlink="http://www.w3.org/1999/xlink" x="0px" y="0px"
	 viewBox="0 0 113 53.7" style="enable-background:new 0 0 113 53.7;" xml:space="preserve">
<style type="text/css">
	.st0{fill:#C8E8EA;}
</style>
<g>
	<g>
		<path class="st0" d="M84,9.8c9.6,0,17.5,7.8,17.5,17.5S93.7,44.8,84,44.8S66.5,37,66.5,27.3S74.4,9.8,84,9.8 M84,5.4
			c-12.1,0-21.8,9.8-21.8,21.8S72,49.1,84,49.1c12.1,0,21.8-9.8,21.8-21.8S96.1,5.4,84,5.4L84,5.4z"/>
		<path class="st0" d="M84,50.1c-12.6,0-22.8-10.3-22.8-22.9C61.2,14.6,71.4,4.4,84,4.4s22.8,10.3,22.8,22.9
			C106.8,39.9,96.6,50.1,84,50.1z M84,6.4c-11.5,0-20.8,9.3-20.8,20.8c0,11.5,9.3,20.9,20.8,20.9s20.8-9.3,20.8-20.8
			C104.8,15.8,95.5,6.4,84,6.4z M84,45.8c-10.2,0-18.5-8.3-18.5-18.5S73.8,8.8,84,8.8s18.5,8.3,18.5,18.5S94.2,45.8,84,45.8z
			 M84,10.8c-9.1,0-16.5,7.4-16.5,16.5c0,9.1,7.4,16.5,16.5,16.5s16.5-7.4,16.5-16.5C100.5,18.2,93.1,10.8,84,10.8z"/>
	</g>
	<g>
		<path class="st0" d="M84,50.6c-12.8,0-23.3-10.4-23.3-23.3S71.2,4,84,4s23.3,10.4,23.3,23.3S96.8,50.6,84,50.6z M84,6.9
			c-11.2,0-20.4,9.1-20.4,20.4S72.8,47.7,84,47.7s20.4-9.1,20.4-20.4S95.3,6.9,84,6.9z M84,46.2c-10.4,0-18.9-8.5-18.9-18.9
			S73.6,8.4,84,8.4s18.9,8.5,18.9,18.9S94.4,46.2,84,46.2z M84,11.2c-8.8,0-16,7.2-16,16s7.2,16,16,16s16-7.2,16-16
			S92.9,11.2,84,11.2z"/>
		<path class="st0" d="M84,51.6c-13.4,0-24.3-10.9-24.3-24.3C59.7,13.9,70.6,3,84,3s24.3,10.9,24.3,24.3
			C108.3,40.7,97.4,51.6,84,51.6z M84,5C71.7,5,61.7,15,61.7,27.3c0,12.3,10,22.3,22.3,22.3s22.3-10,22.3-22.3C106.3,15,96.3,5,84,5
			z M84,48.7c-11.8,0-21.4-9.6-21.4-21.4S72.2,5.9,84,5.9s21.4,9.6,21.4,21.4S95.8,48.7,84,48.7z M84,9.4c-9.9,0-17.9,8-17.9,17.9
			s8,17.9,17.9,17.9s17.9-8,17.9-17.9S93.9,9.4,84,9.4z M84,44.2c-9.4,0-17-7.6-17-17s7.6-17,17-17s17,7.6,17,17S93.4,44.2,84,44.2z
			 M84,12.2c-8.3,0-15,6.7-15,15c0,8.3,6.7,15,15,15s15-6.7,15-15C99,18.9,92.3,12.2,84,12.2z"/>
	</g>
</g>
<g>
	<g>
		<g>
			<g>
				<g>
					<path class="st0" d="M33.8,16.9c0-4.1-3.3-7.5-7.4-7.7c-0.1,0-0.1,0-0.2,0s-0.1,0-0.2,0s-0.1,0-0.2,0s-0.1,0-0.2,0
						c-4.1,0.2-7.4,3.6-7.4,7.7s3.3,7.5,7.4,7.7c0.1,0,0.1,0,0.2,0s0.1,0,0.2,0s0.1,0,0.2,0s0.1,0,0.2,0
						C30.5,24.4,33.8,21,33.8,16.9z"/>
				</g>
			</g>
		</g>
	</g>
	<g>
		<g>
			<g>
				<g>
					<path class="st0" d="M18.3,42.5c0-4.1-3.3-7.5-7.4-7.7c-0.1,0-0.1,0-0.2,0c-0.1,0-0.1,0-0.2,0s-0.1,0-0.2,0c-0.1,0-0.1,0-0.2,0
						C6,35,2.7,38.4,2.7,42.5S6,50,10.1,50.2c0.1,0,0.1,0,0.2,0c0.1,0,0.1,0,0.2,0s0.1,0,0.2,0c0.1,0,0.1,0,0.2,0
						C15.1,50,18.3,46.6,18.3,42.5z"/>
				</g>
			</g>
		</g>
	</g>
	<g>
		<g>
			<g>
				<g>
					<path class="st0" d="M49.3,42.5c0-4.1-3.3-7.5-7.4-7.7c-0.1,0-0.1,0-0.2,0c-0.1,0-0.1,0-0.2,0s-0.1,0-0.2,0c-0.1,0-0.1,0-0.2,0
						c-4.1,0.2-7.4,3.6-7.4,7.7s3.3,7.5,7.4,7.7c0.1,0,0.1,0,0.2,0c0.1,0,0.1,0,0.2,0s0.1,0,0.2,0c0.1,0,0.1,0,0.2,0
						C46,50,49.3,46.6,49.3,42.5z"/>
				</g>
			</g>
		</g>
	</g>
</g>
</svg>
