<?xml version="1.0" encoding="utf-8"?>
<!-- Generator: Adobe Illustrator 20.1.0, SVG Export Plug-In . SVG Version: 6.00 Build 0)  -->
<svg version="1.1" id="Layer_1" xmlns="http://www.w3.org/2000/svg" xmlns:xlink="http://www.w3.org/1999/xlink" x="0px" y="0px"
	 viewBox="0 0 113 53.7" style="enable-background:new 0 0 113 53.7;" xml:space="preserve">
<style type="text/css">
	.st0{fill:#A2C4C5;stroke:#A2C4C5;stroke-width:2;stroke-miterlimit:10;}
	.st1{fill:#A2C4C5;}
</style>
<g>
	<path class="st0" d="M84,9.8c9.6,0,17.5,7.8,17.5,17.5S93.7,44.8,84,44.8s-17.5-7.8-17.5-17.5S74.4,9.8,84,9.8 M84,5.4
		c-12.1,0-21.8,9.8-21.8,21.8S72,49.1,84,49.1c12.1,0,21.8-9.8,21.8-21.8S96.1,5.4,84,5.4L84,5.4z"/>
	<path class="st0" d="M84,50.6c-12.8,0-23.3-10.4-23.3-23.3S71.2,4,84,4s23.3,10.4,23.3,23.3S96.8,50.6,84,50.6z M84,6.9
		c-11.2,0-20.4,9.1-20.4,20.4S72.8,47.7,84,47.7s20.4-9.1,20.4-20.4S95.3,6.9,84,6.9z M84,46.2c-10.4,0-18.9-8.5-18.9-18.9
		S73.6,8.4,84,8.4s18.9,8.5,18.9,18.9S94.4,46.2,84,46.2z M84,11.2c-8.8,0-16,7.2-16,16s7.2,16,16,16s16-7.2,16-16
		S92.9,11.2,84,11.2z"/>
</g>
<g>
	<g>
		<g>
			<g>
				<path class="st1" d="M33.8,16.9c0-4.1-3.3-7.5-7.4-7.7c-0.1,0-0.1,0-0.2,0c-0.1,0-0.1,0-0.2,0s-0.1,0-0.2,0c-0.1,0-0.1,0-0.2,0
					c-4.1,0.2-7.4,3.6-7.4,7.7c0,4.1,3.3,7.5,7.4,7.7c0.1,0,0.1,0,0.2,0c0.1,0,0.1,0,0.2,0s0.1,0,0.2,0c0.1,0,0.1,0,0.2,0
					C30.5,24.4,33.8,21,33.8,16.9z"/>
			</g>
		</g>
	</g>
	<g>
		<g>
			<g>
				<path class="st1" d="M18.3,42.5c0-4.1-3.3-7.5-7.4-7.7c-0.1,0-0.1,0-0.2,0c-0.1,0-0.1,0-0.2,0s-0.1,0-0.2,0c-0.1,0-0.1,0-0.2,0
					c-4.1,0.2-7.4,3.6-7.4,7.7c0,4.1,3.3,7.5,7.4,7.7c0.1,0,0.1,0,0.2,0c0.1,0,0.1,0,0.2,0s0.1,0,0.2,0c0.1,0,0.1,0,0.2,0
					C15.1,50,18.3,46.6,18.3,42.5z"/>
			</g>
		</g>
	</g>
	<g>
		<g>
			<g>
				<path class="st1" d="M49.3,42.5c0-4.1-3.3-7.5-7.4-7.7c-0.1,0-0.1,0-0.2,0c-0.1,0-0.1,0-0.2,0s-0.1,0-0.2,0c-0.1,0-0.1,0-0.2,0
					c-4.1,0.2-7.4,3.6-7.4,7.7c0,4.1,3.3,7.5,7.4,7.7c0.1,0,0.1,0,0.2,0c0.1,0,0.1,0,0.2,0s0.1,0,0.2,0c0.1,0,0.1,0,0.2,0
					C46,50,49.3,46.6,49.3,42.5z"/>
			</g>
		</g>
	</g>
</g>
</svg>
